<svg width="25" height="20" viewBox="0 0 25 20" fill="none" xmlns="http://www.w3.org/2000/svg">
<path fill-rule="evenodd" clip-rule="evenodd" d="M25 10.1562C25 9.92606 24.9059 9.7053 24.7385 9.54253C24.5711 9.37976 24.344 9.28832 24.1072 9.28832H3.04962L8.6689 3.82728C8.75191 3.74658 8.81775 3.65078 8.86268 3.54534C8.9076 3.43991 8.93073 3.3269 8.93073 3.21278C8.93073 3.09866 8.9076 2.98565 8.86268 2.88022C8.81775 2.77478 8.75191 2.67898 8.6689 2.59828C8.58589 2.51759 8.48734 2.45357 8.37889 2.4099C8.27043 2.36623 8.15419 2.34375 8.0368 2.34375C7.9194 2.34375 7.80316 2.36623 7.69471 2.4099C7.58625 2.45357 7.4877 2.51759 7.40469 2.59828L0.262294 9.54175C0.17915 9.62238 0.113185 9.71815 0.0681764 9.8236C0.0231678 9.92905 0 10.0421 0 10.1562C0 10.2704 0.0231678 10.3835 0.0681764 10.4889C0.113185 10.5943 0.17915 10.6901 0.262294 10.7707L7.40469 17.7142C7.4877 17.7949 7.58625 17.8589 7.69471 17.9026C7.80316 17.9463 7.9194 17.9688 8.0368 17.9688C8.15419 17.9688 8.27043 17.9463 8.37889 17.9026C8.48734 17.8589 8.58589 17.7949 8.6689 17.7142C8.75191 17.6335 8.81775 17.5377 8.86268 17.4323C8.9076 17.3268 8.93073 17.2138 8.93073 17.0997C8.93073 16.9856 8.9076 16.8726 8.86268 16.7672C8.81775 16.6617 8.75191 16.5659 8.6689 16.4852L3.04962 11.0242H24.1072C24.344 11.0242 24.5711 10.9327 24.7385 10.77C24.9059 10.6072 25 10.3864 25 10.1562Z" fill="#F9F9F9"/>
</svg>
