<svg width="25" height="20" viewBox="0 0 25 20" fill="none" xmlns="http://www.w3.org/2000/svg">
<path d="M10.1562 0C9.53465 0 8.93851 0.240599 8.49897 0.668867C8.05943 1.09713 7.8125 1.67799 7.8125 2.28365V3.04487H2.34375C1.72215 3.04487 1.12601 3.28547 0.686468 3.71374C0.24693 4.14201 0 4.72286 0 5.32853L0 7.43558L11.8969 10.5261C12.2921 10.6287 12.7079 10.6287 13.1031 10.5261L25 7.43558V5.32853C25 4.72286 24.7531 4.14201 24.3135 3.71374C23.874 3.28547 23.2779 3.04487 22.6562 3.04487H17.1875V2.28365C17.1875 1.67799 16.9406 1.09713 16.501 0.668867C16.0615 0.240599 15.4654 0 14.8438 0H10.1562ZM10.1562 1.52244H14.8438C15.051 1.52244 15.2497 1.60264 15.3962 1.74539C15.5427 1.88815 15.625 2.08177 15.625 2.28365V3.04487H9.375V2.28365C9.375 2.08177 9.45731 1.88815 9.60382 1.74539C9.75034 1.60264 9.94905 1.52244 10.1562 1.52244Z" fill="#F9F9F9"/>
<path d="M0 17.508C0 18.1137 0.24693 18.6945 0.686468 19.1228C1.12601 19.5511 1.72215 19.7917 2.34375 19.7917H22.6562C23.2779 19.7917 23.874 19.5511 24.3135 19.1228C24.7531 18.6945 25 18.1137 25 17.508V8.90625L12.7016 12.0988C12.5695 12.1332 12.4305 12.1332 12.2984 12.0988L0 8.90625V17.508Z" fill="#F9F9F9"/>
</svg>
