<svg width="18" height="20" viewBox="0 0 18 20" fill="none" xmlns="http://www.w3.org/2000/svg">
<path d="M1.34615 1.33333C0.989132 1.33333 0.646732 1.47381 0.394279 1.72386C0.141826 1.97391 0 2.31304 0 2.66667V4C0 4.35362 0.141826 4.69276 0.394279 4.94281C0.646732 5.19286 0.989132 5.33333 1.34615 5.33333H2.01923V17.3333C2.01923 18.0406 2.30288 18.7189 2.80779 19.219C3.3127 19.719 3.99749 20 4.71154 20H12.7885C13.5025 20 14.1873 19.719 14.6922 19.219C15.1971 18.7189 15.4808 18.0406 15.4808 17.3333V5.33333H16.1538C16.5109 5.33333 16.8533 5.19286 17.1057 4.94281C17.3582 4.69276 17.5 4.35362 17.5 4V2.66667C17.5 2.31304 17.3582 1.97391 17.1057 1.72386C16.8533 1.47381 16.5109 1.33333 16.1538 1.33333H11.4423C11.4423 0.979711 11.3005 0.640573 11.048 0.390524C10.7956 0.140476 10.4532 0 10.0962 0L7.40385 0C7.04682 0 6.70442 0.140476 6.45197 0.390524C6.19952 0.640573 6.05769 0.979711 6.05769 1.33333H1.34615ZM5.38462 6.66667C5.56313 6.66667 5.73433 6.73691 5.86055 6.86193C5.98678 6.98695 6.05769 7.15652 6.05769 7.33333V16.6667C6.05769 16.8435 5.98678 17.013 5.86055 17.1381C5.73433 17.2631 5.56313 17.3333 5.38462 17.3333C5.2061 17.3333 5.0349 17.2631 4.90868 17.1381C4.78245 17.013 4.71154 16.8435 4.71154 16.6667V7.33333C4.71154 7.15652 4.78245 6.98695 4.90868 6.86193C5.0349 6.73691 5.2061 6.66667 5.38462 6.66667ZM8.75 6.66667C8.92851 6.66667 9.09971 6.73691 9.22594 6.86193C9.35216 6.98695 9.42308 7.15652 9.42308 7.33333V16.6667C9.42308 16.8435 9.35216 17.013 9.22594 17.1381C9.09971 17.2631 8.92851 17.3333 8.75 17.3333C8.57149 17.3333 8.40029 17.2631 8.27406 17.1381C8.14784 17.013 8.07692 16.8435 8.07692 16.6667V7.33333C8.07692 7.15652 8.14784 6.98695 8.27406 6.86193C8.40029 6.73691 8.57149 6.66667 8.75 6.66667ZM12.7885 7.33333V16.6667C12.7885 16.8435 12.7175 17.013 12.5913 17.1381C12.4651 17.2631 12.2939 17.3333 12.1154 17.3333C11.9369 17.3333 11.7657 17.2631 11.6394 17.1381C11.5132 17.013 11.4423 16.8435 11.4423 16.6667V7.33333C11.4423 7.15652 11.5132 6.98695 11.6394 6.86193C11.7657 6.73691 11.9369 6.66667 12.1154 6.66667C12.2939 6.66667 12.4651 6.73691 12.5913 6.86193C12.7175 6.98695 12.7885 7.15652 12.7885 7.33333Z" fill="#F9F9F9"/>
</svg>
