<svg width="29" height="21" viewBox="0 0 29 21" fill="none" xmlns="http://www.w3.org/2000/svg">
<path fill-rule="evenodd" clip-rule="evenodd" d="M0 19.5C0 19.1022 0.127306 18.7206 0.353913 18.4393C0.580519 18.158 0.887863 18 1.20833 18H27.7917C28.1121 18 28.4195 18.158 28.6461 18.4393C28.8727 18.7206 29 19.1022 29 19.5C29 19.8978 28.8727 20.2794 28.6461 20.5607C28.4195 20.842 28.1121 21 27.7917 21H1.20833C0.887863 21 0.580519 20.842 0.353913 20.5607C0.127306 20.2794 0 19.8978 0 19.5ZM0 10.5C0 10.1022 0.127306 9.72064 0.353913 9.43934C0.580519 9.15803 0.887863 9 1.20833 9H27.7917C28.1121 9 28.4195 9.15803 28.6461 9.43934C28.8727 9.72064 29 10.1022 29 10.5C29 10.8978 28.8727 11.2794 28.6461 11.5607C28.4195 11.842 28.1121 12 27.7917 12H1.20833C0.887863 12 0.580519 11.842 0.353913 11.5607C0.127306 11.2794 0 10.8978 0 10.5ZM0 1.5C0 1.10218 0.127306 0.720644 0.353913 0.43934C0.580519 0.158035 0.887863 0 1.20833 0H27.7917C28.1121 0 28.4195 0.158035 28.6461 0.43934C28.8727 0.720644 29 1.10218 29 1.5C29 1.89783 28.8727 2.27936 28.6461 2.56066C28.4195 2.84196 28.1121 3 27.7917 3H1.20833C0.887863 3 0.580519 2.84196 0.353913 2.56066C0.127306 2.27936 0 1.89783 0 1.5Z" fill="#F9F9F9"/>
</svg>
