<svg width="6" height="5" viewBox="0 0 6 5" fill="none" xmlns="http://www.w3.org/2000/svg">
<path d="M5.06061 0.167268C5.16348 0.060506 5.30235 0.000420604 5.44719 2.1998e-06C5.59204 -0.000416204 5.73122 0.058866 5.83465 0.165033C5.93808 0.271199 5.99745 0.415719 5.99992 0.567348C6.00239 0.718977 5.94776 0.865532 5.84784 0.975327L2.91352 4.81553C2.86309 4.8724 2.80223 4.91804 2.73456 4.94972C2.6669 4.9814 2.59383 4.99846 2.51972 4.9999C2.44561 5.00134 2.37199 4.98711 2.30325 4.95808C2.23452 4.92904 2.17208 4.8858 2.11967 4.83092L0.175463 2.79461C0.121299 2.74177 0.0778561 2.67805 0.0477249 2.60725C0.0175938 2.53645 0.00139182 2.46002 8.57949e-05 2.38252C-0.00122023 2.30502 0.0123965 2.22804 0.0401233 2.15617C0.0678502 2.0843 0.109119 2.01902 0.161469 1.96421C0.213818 1.9094 0.276175 1.86619 0.34482 1.83716C0.413465 1.80813 0.486991 1.79388 0.561013 1.79524C0.635035 1.79661 0.708035 1.81357 0.775659 1.84512C0.843283 1.87667 0.904146 1.92215 0.954616 1.97886L2.49381 3.58959L5.04664 0.184199C5.05119 0.178237 5.05537 0.172581 5.06061 0.167268Z" fill="#D9D9D9"/>
</svg>
