<svg width="24" height="18" viewBox="0 0 24 18" fill="none" xmlns="http://www.w3.org/2000/svg">
<path d="M10.5 18C10.5 18 9 18 9 16.5C9 15 10.5 10.5 16.5 10.5C22.5 10.5 24 15 24 16.5C24 18 22.5 18 22.5 18H10.5ZM16.5 9C17.6935 9 18.8381 8.5259 19.682 7.68198C20.5259 6.83807 21 5.69348 21 4.5C21 3.30653 20.5259 2.16193 19.682 1.31802C18.8381 0.474106 17.6935 0 16.5 0C15.3065 0 14.1619 0.474106 13.318 1.31802C12.4741 2.16193 12 3.30653 12 4.5C12 5.69348 12.4741 6.83807 13.318 7.68198C14.1619 8.5259 15.3065 9 16.5 9Z" fill="#FFFFFF"/>
<path fill-rule="evenodd" clip-rule="evenodd" d="M7.824 18.0002C7.60163 17.5319 7.49074 17.0185 7.5 16.5002C7.5 14.4677 8.52 12.3752 10.404 10.9202C9.46364 10.6304 8.48393 10.4887 7.5 10.5002C1.5 10.5002 0 15.0002 0 16.5002C0 18.0002 1.5 18.0002 1.5 18.0002H7.824Z" fill="#FFFFFF"/>
<path d="M6.75 8.99951C7.74456 8.99951 8.69839 8.60443 9.40165 7.90116C10.1049 7.1979 10.5 6.24408 10.5 5.24951C10.5 4.25495 10.1049 3.30112 9.40165 2.59786C8.69839 1.8946 7.74456 1.49951 6.75 1.49951C5.75544 1.49951 4.80161 1.8946 4.09835 2.59786C3.39509 3.30112 3 4.25495 3 5.24951C3 6.24408 3.39509 7.1979 4.09835 7.90116C4.80161 8.60443 5.75544 8.99951 6.75 8.99951Z" fill="#FFFFFF"/>
</svg>
