<svg width="20" height="20" viewBox="0 0 20 20" fill="none" xmlns="http://www.w3.org/2000/svg">
<g clip-path="url(#clip0_502_41)">
<path d="M10.6438 1.27375C10.4295 1.25793 10.2148 1.25001 10 1.25V0C10.2457 0.000119784 10.4913 0.00929267 10.7362 0.0275L10.6438 1.27375ZM13.1487 1.83625C12.7481 1.68163 12.3365 1.55671 11.9175 1.4625L12.1913 0.2425C12.67 0.35 13.1412 0.4925 13.5987 0.67L13.1487 1.83625ZM14.8612 2.72375C14.6825 2.60456 14.4995 2.49199 14.3125 2.38625L14.9287 1.29875C15.3561 1.54092 15.7651 1.81415 16.1525 2.11625L15.3837 3.1025C15.2143 2.97029 15.04 2.84437 14.8612 2.725V2.72375ZM17.1537 4.96125C16.9065 4.60997 16.6337 4.2774 16.3375 3.96625L17.2425 3.10375C17.58 3.46 17.8925 3.84125 18.1762 4.24125L17.1537 4.96125ZM18.0837 6.65125C18.0017 6.45307 17.9125 6.25794 17.8162 6.06625L18.9325 5.50375C19.1532 5.94261 19.3413 6.39718 19.495 6.86375L18.3075 7.255C18.2403 7.05108 18.1657 6.8497 18.0837 6.65125ZM18.7462 9.785C18.7361 9.35542 18.6944 8.92718 18.6212 8.50375L19.8525 8.29125C19.9362 8.77375 19.985 9.26375 19.9975 9.75375L18.7475 9.785H18.7462ZM18.5825 11.7075C18.6237 11.495 18.6575 11.2837 18.6837 11.07L19.925 11.2237C19.865 11.7114 19.7689 12.194 19.6375 12.6675L18.4325 12.3337C18.49 12.1275 18.54 11.9187 18.5825 11.7075ZM17.3925 14.6812C17.6225 14.3187 17.825 13.9387 18 13.5462L19.1425 14.0525C18.9425 14.5025 18.7112 14.935 18.4487 15.35L17.3925 14.6812ZM16.1875 16.1875C16.34 16.035 16.4862 15.8775 16.625 15.715L17.5725 16.5312C17.412 16.7173 17.2448 16.8974 17.0712 17.0712L16.1875 16.1875Z" fill="#F9F9F9"/>
<path d="M9.99951 1.25C8.56061 1.2501 7.14394 1.60506 5.87498 2.28342C4.60602 2.96179 3.52394 3.94263 2.72458 5.13906C1.92522 6.3355 1.43325 7.7106 1.29225 9.14258C1.15125 10.5746 1.36557 12.0192 1.91623 13.3486C2.46689 14.6779 3.33689 15.851 4.44917 16.7638C5.56145 17.6766 6.88168 18.3011 8.29293 18.5818C9.70417 18.8626 11.1629 18.791 12.5398 18.3733C13.9168 17.9557 15.1695 17.2049 16.187 16.1875L17.0708 17.0712C15.9079 18.2347 14.4761 19.0934 12.9021 19.5712C11.328 20.0491 9.66047 20.1313 8.04709 19.8106C6.43371 19.4899 4.92433 18.7762 3.6527 17.7328C2.38106 16.6893 1.38643 15.3483 0.756928 13.8286C0.127427 12.3089 -0.117507 10.6573 0.0438278 9.02034C0.205163 7.38332 0.767785 5.81138 1.68184 4.44377C2.5959 3.07617 3.83318 1.95514 5.28404 1.18C6.73491 0.404869 8.35457 -0.000435915 9.99951 3.51823e-07V1.25Z" fill="#F9F9F9"/>
<path d="M9.375 3.75C9.54076 3.75 9.69973 3.81585 9.81694 3.93306C9.93415 4.05027 10 4.20924 10 4.375V10.8875L14.06 13.2075C14.1997 13.2918 14.301 13.4274 14.342 13.5854C14.3831 13.7433 14.3608 13.9111 14.2798 14.0527C14.1988 14.1944 14.0657 14.2989 13.9087 14.3437C13.7518 14.3885 13.5836 14.3701 13.44 14.2925L9.065 11.7925C8.96934 11.7379 8.88982 11.6589 8.83451 11.5636C8.77919 11.4684 8.75004 11.3602 8.75 11.25V4.375C8.75 4.20924 8.81585 4.05027 8.93306 3.93306C9.05027 3.81585 9.20924 3.75 9.375 3.75Z" fill="#F9F9F9"/>
</g>
<defs>
<clipPath id="clip0_502_41">
<rect width="20" height="20" fill="white"/>
</clipPath>
</defs>
</svg>
