<svg width="16" height="16" viewBox="0 0 16 16" fill="none" xmlns="http://www.w3.org/2000/svg">
<path d="M15.8106 1.57037C15.9124 1.67255 15.9696 1.81094 15.9696 1.95522C15.9696 2.0995 15.9124 2.2379 15.8106 2.34008L14.6735 3.47828L12.493 1.29781L13.6301 0.159603C13.7323 0.0574094 13.871 0 14.0155 0C14.1601 0 14.2987 0.0574094 14.4009 0.159603L15.8106 1.56928V1.57037ZM13.9027 4.24799L11.7222 2.06752L4.29442 9.49639C4.23441 9.55638 4.18924 9.62955 4.1625 9.71007L3.28486 12.3419C3.26894 12.3899 3.26668 12.4413 3.27833 12.4905C3.28998 12.5397 3.31508 12.5847 3.35083 12.6205C3.38657 12.6562 3.43155 12.6813 3.48074 12.6929C3.52993 12.7046 3.58139 12.7023 3.62937 12.6864L6.2612 11.8088C6.34163 11.7824 6.41479 11.7376 6.47489 11.6779L13.9027 4.24799Z" fill="white"/>
<path fill-rule="evenodd" clip-rule="evenodd" d="M0 14.1739C0 14.6076 0.172296 15.0235 0.478984 15.3302C0.785673 15.6369 1.20163 15.8092 1.63535 15.8092H13.628C14.0617 15.8092 14.4776 15.6369 14.7843 15.3302C15.091 15.0235 15.2633 14.6076 15.2633 14.1739V7.63243C15.2633 7.48786 15.2059 7.34921 15.1036 7.24698C15.0014 7.14475 14.8628 7.08732 14.7182 7.08732C14.5736 7.08732 14.435 7.14475 14.3327 7.24698C14.2305 7.34921 14.1731 7.48786 14.1731 7.63243V14.1739C14.1731 14.3184 14.1156 14.4571 14.0134 14.5593C13.9112 14.6615 13.7725 14.719 13.628 14.719H1.63535C1.49078 14.719 1.35213 14.6615 1.2499 14.5593C1.14767 14.4571 1.09024 14.3184 1.09024 14.1739V2.18125C1.09024 2.03668 1.14767 1.89803 1.2499 1.7958C1.35213 1.69357 1.49078 1.63613 1.63535 1.63613H8.72189C8.86646 1.63613 9.00512 1.5787 9.10735 1.47647C9.20958 1.37424 9.26701 1.23559 9.26701 1.09102C9.26701 0.946442 9.20958 0.807789 9.10735 0.70556C9.00512 0.60333 8.86646 0.545898 8.72189 0.545898H1.63535C1.20163 0.545898 0.785673 0.718194 0.478984 1.02488C0.172296 1.33157 0 1.74753 0 2.18125V14.1739Z" fill="white"/>
</svg>
