<svg width="20" height="15" viewBox="0 0 20 15" fill="none" xmlns="http://www.w3.org/2000/svg">
<path d="M0 13.9286C0 13.6444 0.0877975 13.3719 0.244078 13.171C0.400358 12.97 0.61232 12.8571 0.833333 12.8571H5.83333C6.05435 12.8571 6.26631 12.97 6.42259 13.171C6.57887 13.3719 6.66667 13.6444 6.66667 13.9286C6.66667 14.2127 6.57887 14.4853 6.42259 14.6862C6.26631 14.8871 6.05435 15 5.83333 15H0.833333C0.61232 15 0.400358 14.8871 0.244078 14.6862C0.0877975 14.4853 0 14.2127 0 13.9286ZM0 7.5C0 7.21584 0.0877975 6.94332 0.244078 6.74239C0.400358 6.54145 0.61232 6.42857 0.833333 6.42857H12.5C12.721 6.42857 12.933 6.54145 13.0893 6.74239C13.2455 6.94332 13.3333 7.21584 13.3333 7.5C13.3333 7.78416 13.2455 8.05668 13.0893 8.25761C12.933 8.45855 12.721 8.57143 12.5 8.57143H0.833333C0.61232 8.57143 0.400358 8.45855 0.244078 8.25761C0.0877975 8.05668 0 7.78416 0 7.5ZM0 1.07143C0 0.787268 0.0877975 0.514746 0.244078 0.313814C0.400358 0.112883 0.61232 0 0.833333 0H19.1667C19.3877 0 19.5996 0.112883 19.7559 0.313814C19.9122 0.514746 20 0.787268 20 1.07143C20 1.35559 19.9122 1.62811 19.7559 1.82904C19.5996 2.02997 19.3877 2.14286 19.1667 2.14286H0.833333C0.61232 2.14286 0.400358 2.02997 0.244078 1.82904C0.0877975 1.62811 0 1.35559 0 1.07143Z" fill="#D9D9D9"/>
</svg>
