<svg width="25" height="25" viewBox="0 0 25 25" fill="none" xmlns="http://www.w3.org/2000/svg">
<path d="M0 2.67857C0 1.96817 0.282206 1.28687 0.784535 0.784535C1.28687 0.282206 1.96817 0 2.67857 0H8.03571C8.74612 0 9.42742 0.282206 9.92975 0.784535C10.4321 1.28687 10.7143 1.96817 10.7143 2.67857V8.03571C10.7143 8.74612 10.4321 9.42742 9.92975 9.92975C9.42742 10.4321 8.74612 10.7143 8.03571 10.7143H2.67857C1.96817 10.7143 1.28687 10.4321 0.784535 9.92975C0.282206 9.42742 0 8.74612 0 8.03571V2.67857ZM14.2857 2.67857C14.2857 1.96817 14.5679 1.28687 15.0702 0.784535C15.5726 0.282206 16.2539 0 16.9643 0H22.3214C23.0318 0 23.7131 0.282206 24.2155 0.784535C24.7178 1.28687 25 1.96817 25 2.67857V8.03571C25 8.74612 24.7178 9.42742 24.2155 9.92975C23.7131 10.4321 23.0318 10.7143 22.3214 10.7143H16.9643C16.2539 10.7143 15.5726 10.4321 15.0702 9.92975C14.5679 9.42742 14.2857 8.74612 14.2857 8.03571V2.67857ZM0 16.9643C0 16.2539 0.282206 15.5726 0.784535 15.0702C1.28687 14.5679 1.96817 14.2857 2.67857 14.2857H8.03571C8.74612 14.2857 9.42742 14.5679 9.92975 15.0702C10.4321 15.5726 10.7143 16.2539 10.7143 16.9643V22.3214C10.7143 23.0318 10.4321 23.7131 9.92975 24.2155C9.42742 24.7178 8.74612 25 8.03571 25H2.67857C1.96817 25 1.28687 24.7178 0.784535 24.2155C0.282206 23.7131 0 23.0318 0 22.3214V16.9643ZM14.2857 16.9643C14.2857 16.2539 14.5679 15.5726 15.0702 15.0702C15.5726 14.5679 16.2539 14.2857 16.9643 14.2857H22.3214C23.0318 14.2857 23.7131 14.5679 24.2155 15.0702C24.7178 15.5726 25 16.2539 25 16.9643V22.3214C25 23.0318 24.7178 23.7131 24.2155 24.2155C23.7131 24.7178 23.0318 25 22.3214 25H16.9643C16.2539 25 15.5726 24.7178 15.0702 24.2155C14.5679 23.7131 14.2857 23.0318 14.2857 22.3214V16.9643Z" fill="#0084FF"/>
</svg>
