<svg width="24" height="18" viewBox="0 0 24 18" fill="none" xmlns="http://www.w3.org/2000/svg">
<path fill-rule="evenodd" clip-rule="evenodd" d="M14.9991 15.7491C14.9991 15.948 14.9201 16.1387 14.7795 16.2794C14.6388 16.42 14.4481 16.499 14.2492 16.499H2.24987C2.05097 16.499 1.86021 16.42 1.71957 16.2794C1.57893 16.1387 1.49991 15.948 1.49991 15.7491V2.24987C1.49991 2.05097 1.57893 1.86021 1.71957 1.71957C1.86021 1.57893 2.05097 1.49991 2.24987 1.49991H14.2492C14.4481 1.49991 14.6388 1.57893 14.7795 1.71957C14.9201 1.86021 14.9991 2.05097 14.9991 2.24987V5.24969C14.9991 5.44859 15.0781 5.63935 15.2188 5.77999C15.3594 5.92064 15.5502 5.99965 15.7491 5.99965C15.948 5.99965 16.1387 5.92064 16.2794 5.77999C16.42 5.63935 16.499 5.44859 16.499 5.24969V2.24987C16.499 1.65317 16.262 1.0809 15.8401 0.658971C15.4181 0.237039 14.8459 0 14.2492 0H2.24987C1.65317 0 1.0809 0.237039 0.658971 0.658971C0.237039 1.0809 0 1.65317 0 2.24987L0 15.7491C0 16.3458 0.237039 16.918 0.658971 17.34C1.0809 17.7619 1.65317 17.9989 2.24987 17.9989H14.2492C14.8459 17.9989 15.4181 17.7619 15.8401 17.34C16.262 16.918 16.499 16.3458 16.499 15.7491V12.7493C16.499 12.5504 16.42 12.3596 16.2794 12.219C16.1387 12.0783 15.948 11.9993 15.7491 11.9993C15.5502 11.9993 15.3594 12.0783 15.2188 12.219C15.0781 12.3596 14.9991 12.5504 14.9991 12.7493V15.7491Z" fill="#0084FF"/>
<path fill-rule="evenodd" clip-rule="evenodd" d="M23.7796 9.53063C23.8494 9.46097 23.9048 9.37821 23.9426 9.2871C23.9804 9.19598 23.9999 9.09831 23.9999 8.99966C23.9999 8.90102 23.9804 8.80334 23.9426 8.71223C23.9048 8.62112 23.8494 8.53836 23.7796 8.4687L19.2798 3.96896C19.139 3.82814 18.948 3.74902 18.7489 3.74902C18.5497 3.74902 18.3587 3.82814 18.2179 3.96896C18.0771 4.10978 17.998 4.30078 17.998 4.49993C17.998 4.69908 18.0771 4.89007 18.2179 5.0309L21.4382 8.24971H8.24947C8.05057 8.24971 7.85981 8.32872 7.71917 8.46937C7.57852 8.61001 7.49951 8.80076 7.49951 8.99966C7.49951 9.19856 7.57852 9.38932 7.71917 9.52996C7.85981 9.67061 8.05057 9.74962 8.24947 9.74962H21.4382L18.2179 12.9684C18.0771 13.1093 17.998 13.3002 17.998 13.4994C17.998 13.6986 18.0771 13.8895 18.2179 14.0304C18.3587 14.1712 18.5497 14.2503 18.7489 14.2503C18.948 14.2503 19.139 14.1712 19.2798 14.0304L23.7796 9.53063Z" fill="#0084FF"/>
</svg>
