<svg width="25" height="25" viewBox="0 0 25 25" fill="none" xmlns="http://www.w3.org/2000/svg">
<path d="M12.5 1.5625L12.5 23.4375L3.125 23.4375C2.7106 23.4375 2.31317 23.2729 2.02015 22.9799C1.72712 22.6868 1.5625 22.2894 1.5625 21.875L1.5625 3.125C1.5625 2.7106 1.72712 2.31317 2.02015 2.02014C2.31317 1.72712 2.7106 1.5625 3.125 1.5625L12.5 1.5625ZM3.125 -1.91237e-06C2.2962 -1.98483e-06 1.50134 0.329239 0.915295 0.915291C0.329243 1.50134 1.98483e-06 2.2962 1.91237e-06 3.125L2.73196e-07 21.875C2.0074e-07 22.7038 0.329241 23.4987 0.915293 24.0847C1.50134 24.6708 2.2962 25 3.125 25L21.875 25C22.7038 25 23.4987 24.6708 24.0847 24.0847C24.6708 23.4987 25 22.7038 25 21.875L25 3.125C25 2.2962 24.6708 1.50134 24.0847 0.915293C23.4987 0.329241 22.7038 -2.0074e-07 21.875 -2.73196e-07L3.125 -1.91237e-06Z" fill="#F9F9F9"/>
</svg>
