<svg width="30" height="24" viewBox="0 0 30 24" fill="none" xmlns="http://www.w3.org/2000/svg">
<path d="M12.1875 0C11.4416 0 10.7262 0.288718 10.1988 0.80264C9.67132 1.31656 9.375 2.01359 9.375 2.74038V3.65385H2.8125C2.06658 3.65385 1.35121 3.94256 0.823762 4.45649C0.296316 4.97041 0 5.66744 0 6.39423L0 8.92269L14.2762 12.6313C14.7505 12.7544 15.2495 12.7544 15.7237 12.6313L30 8.92269V6.39423C30 5.66744 29.7037 4.97041 29.1762 4.45649C28.6488 3.94256 27.9334 3.65385 27.1875 3.65385H20.625V2.74038C20.625 2.01359 20.3287 1.31656 19.8012 0.80264C19.2738 0.288718 18.5584 0 17.8125 0H12.1875ZM12.1875 1.82692H17.8125C18.0611 1.82692 18.2996 1.92316 18.4754 2.09447C18.6512 2.26578 18.75 2.49812 18.75 2.74038V3.65385H11.25V2.74038C11.25 2.49812 11.3488 2.26578 11.5246 2.09447C11.7004 1.92316 11.9389 1.82692 12.1875 1.82692Z" fill="#F9F9F9"/>
<path d="M0 21.0096C0 21.7364 0.296316 22.4334 0.823762 22.9474C1.35121 23.4613 2.06658 23.75 2.8125 23.75H27.1875C27.9334 23.75 28.6488 23.4613 29.1762 22.9474C29.7037 22.4334 30 21.7364 30 21.0096V10.6875L15.2419 14.5186C15.0834 14.5598 14.9166 14.5598 14.7581 14.5186L0 10.6875V21.0096Z" fill="#F9F9F9"/>
</svg>
